<mxfile host="app.diagrams.net" modified="2023-01-06T13:57:30.643Z" agent="5.0 (Windows NT 10.0; Win64; x64) AppleWebKit/537.36 (KHTML, like Gecko) Chrome/108.0.0.0 Safari/537.36" etag="lR_XMgjlKmdBWN4NeXp7" version="20.7.4" type="github">
  <diagram name="Page-1" id="19d8dcba-68ad-dc05-1034-9cf7b2a963f6">
    <mxGraphModel dx="3168" dy="1726" grid="1" gridSize="10" guides="1" tooltips="1" connect="1" arrows="1" fold="1" page="1" pageScale="1" pageWidth="1100" pageHeight="850" background="none" math="0" shadow="0">
      <root>
        <mxCell id="0" />
        <mxCell id="1" parent="0" />
        <mxCell id="218ae93e1282097f-42" value="" style="edgeStyle=orthogonalEdgeStyle;rounded=1;html=1;labelBackgroundColor=none;endArrow=block;endFill=1;strokeColor=#4D4D4D;strokeWidth=2;fontFamily=Verdana;fontSize=12;fontStyle=1" parent="1" source="6257edae8c83ed4a-1" target="6257edae8c83ed4a-12" edge="1">
          <mxGeometry relative="1" as="geometry" />
        </mxCell>
        <mxCell id="218ae93e1282097f-43" value="" style="edgeStyle=orthogonalEdgeStyle;rounded=1;html=1;labelBackgroundColor=none;endArrow=block;endFill=1;strokeColor=#4D4D4D;strokeWidth=2;fontFamily=Verdana;fontSize=12;fontStyle=1" parent="1" source="6257edae8c83ed4a-1" edge="1">
          <mxGeometry relative="1" as="geometry">
            <mxPoint x="438" y="100" as="targetPoint" />
          </mxGeometry>
        </mxCell>
        <mxCell id="218ae93e1282097f-44" value="" style="edgeStyle=orthogonalEdgeStyle;rounded=1;html=1;labelBackgroundColor=none;endArrow=block;endFill=1;strokeColor=#4D4D4D;strokeWidth=2;fontFamily=Verdana;fontSize=12;fontStyle=1" parent="1" source="6257edae8c83ed4a-1" target="218ae93e1282097f-2" edge="1">
          <mxGeometry relative="1" as="geometry" />
        </mxCell>
        <mxCell id="218ae93e1282097f-47" value="" style="edgeStyle=orthogonalEdgeStyle;rounded=1;html=1;labelBackgroundColor=none;endArrow=block;endFill=1;strokeColor=#4D4D4D;strokeWidth=2;fontFamily=Verdana;fontSize=12;fontStyle=1" parent="1" source="218ae93e1282097f-2" target="218ae93e1282097f-5" edge="1">
          <mxGeometry relative="1" as="geometry" />
        </mxCell>
        <mxCell id="218ae93e1282097f-48" value="" style="edgeStyle=orthogonalEdgeStyle;rounded=1;html=1;labelBackgroundColor=none;endArrow=block;endFill=1;strokeColor=#4D4D4D;strokeWidth=2;fontFamily=Verdana;fontSize=12;fontStyle=1" parent="1" source="218ae93e1282097f-2" target="6257edae8c83ed4a-24" edge="1">
          <mxGeometry relative="1" as="geometry" />
        </mxCell>
        <mxCell id="6257edae8c83ed4a-12" value="OTHERS" style="whiteSpace=wrap;html=1;rounded=1;shadow=0;comic=0;strokeWidth=2;fontFamily=Verdana;align=center;fontSize=12;fontStyle=1" parent="1" vertex="1">
          <mxGeometry x="887" y="110" width="200" height="50" as="geometry" />
        </mxCell>
        <mxCell id="6257edae8c83ed4a-1" value="Name&lt;div&gt;&lt;span&gt;Position&lt;/span&gt;&lt;/div&gt;" style="whiteSpace=wrap;html=1;rounded=1;shadow=0;comic=0;strokeWidth=2;fontFamily=Verdana;align=center;fontSize=12;fontStyle=1" parent="1" vertex="1">
          <mxGeometry x="887" width="200" height="50" as="geometry" />
        </mxCell>
        <mxCell id="SNM1HYTEmkiPS5Zu2fkb-4" value="" style="edgeStyle=orthogonalEdgeStyle;rounded=0;orthogonalLoop=1;jettySize=auto;html=1;" edge="1" parent="1" source="218ae93e1282097f-2" target="SNM1HYTEmkiPS5Zu2fkb-3">
          <mxGeometry relative="1" as="geometry" />
        </mxCell>
        <mxCell id="218ae93e1282097f-2" value="BEVERAGE" style="whiteSpace=wrap;html=1;rounded=1;shadow=0;comic=0;strokeWidth=2;fontFamily=Verdana;align=center;fontSize=12;fontStyle=1" parent="1" vertex="1">
          <mxGeometry x="1247" y="110" width="200" height="50" as="geometry" />
        </mxCell>
        <mxCell id="218ae93e1282097f-3" value="" style="shape=actor;whiteSpace=wrap;html=1;rounded=0;shadow=0;comic=0;strokeWidth=1;fillColor=#CCCCCC;fontFamily=Verdana;align=center;strokeColor=none;fontSize=12;fontStyle=1" parent="1" vertex="1">
          <mxGeometry x="1261" y="220" width="24" height="30" as="geometry" />
        </mxCell>
        <mxCell id="6257edae8c83ed4a-24" value="Coffee" style="whiteSpace=wrap;html=1;rounded=1;shadow=0;comic=0;strokeWidth=2;fontFamily=Verdana;align=center;fontSize=12;fontStyle=1" parent="1" vertex="1">
          <mxGeometry x="1288.5" y="325" width="117" height="50" as="geometry" />
        </mxCell>
        <mxCell id="218ae93e1282097f-5" value="Juice" style="whiteSpace=wrap;html=1;rounded=1;shadow=0;comic=0;strokeWidth=2;fontFamily=Verdana;align=center;fontSize=12;fontStyle=1" parent="1" vertex="1">
          <mxGeometry x="1470" y="325" width="110" height="50" as="geometry" />
        </mxCell>
        <mxCell id="SNM1HYTEmkiPS5Zu2fkb-3" value="Beer" style="whiteSpace=wrap;html=1;fontFamily=Verdana;rounded=1;shadow=0;comic=0;strokeWidth=2;fontStyle=1;" vertex="1" parent="1">
          <mxGeometry x="1099" y="325" width="120" height="60" as="geometry" />
        </mxCell>
        <mxCell id="SNM1HYTEmkiPS5Zu2fkb-5" value="Tea" style="whiteSpace=wrap;html=1;fontFamily=Verdana;rounded=1;shadow=0;comic=0;strokeWidth=2;fontStyle=1;" vertex="1" parent="1">
          <mxGeometry x="1650" y="315" width="120" height="60" as="geometry" />
        </mxCell>
        <mxCell id="SNM1HYTEmkiPS5Zu2fkb-6" value="" style="edgeStyle=orthogonalEdgeStyle;rounded=1;html=1;labelBackgroundColor=none;endArrow=block;endFill=1;strokeColor=#4D4D4D;strokeWidth=2;fontFamily=Verdana;fontSize=12;fontStyle=1;entryX=0.5;entryY=0;entryDx=0;entryDy=0;exitX=1;exitY=0.5;exitDx=0;exitDy=0;" edge="1" parent="1" source="218ae93e1282097f-2" target="SNM1HYTEmkiPS5Zu2fkb-5">
          <mxGeometry relative="1" as="geometry">
            <mxPoint x="1447" y="235" as="sourcePoint" />
            <mxPoint x="1800" y="310" as="targetPoint" />
            <Array as="points">
              <mxPoint x="1447" y="235" />
              <mxPoint x="1740" y="235" />
              <mxPoint x="1740" y="315" />
            </Array>
          </mxGeometry>
        </mxCell>
        <mxCell id="SNM1HYTEmkiPS5Zu2fkb-11" value="" style="edgeStyle=orthogonalEdgeStyle;rounded=1;html=1;labelBackgroundColor=none;endArrow=block;endFill=1;strokeColor=#4D4D4D;strokeWidth=2;fontFamily=Verdana;fontSize=12;fontStyle=1;exitX=1;exitY=0.5;exitDx=0;exitDy=0;" edge="1" parent="1" source="SNM1HYTEmkiPS5Zu2fkb-14" target="SNM1HYTEmkiPS5Zu2fkb-17">
          <mxGeometry relative="1" as="geometry">
            <mxPoint x="598.5" y="125" as="sourcePoint" />
          </mxGeometry>
        </mxCell>
        <mxCell id="SNM1HYTEmkiPS5Zu2fkb-12" value="" style="edgeStyle=orthogonalEdgeStyle;rounded=1;html=1;labelBackgroundColor=none;endArrow=block;endFill=1;strokeColor=#4D4D4D;strokeWidth=2;fontFamily=Verdana;fontSize=12;fontStyle=1" edge="1" parent="1" target="SNM1HYTEmkiPS5Zu2fkb-16">
          <mxGeometry relative="1" as="geometry">
            <mxPoint x="498.5" y="150" as="sourcePoint" />
          </mxGeometry>
        </mxCell>
        <mxCell id="SNM1HYTEmkiPS5Zu2fkb-13" value="" style="edgeStyle=orthogonalEdgeStyle;rounded=0;orthogonalLoop=1;jettySize=auto;html=1;entryX=0.5;entryY=0;entryDx=0;entryDy=0;" edge="1" parent="1" source="SNM1HYTEmkiPS5Zu2fkb-14" target="SNM1HYTEmkiPS5Zu2fkb-24">
          <mxGeometry relative="1" as="geometry">
            <mxPoint x="230" y="305" as="targetPoint" />
          </mxGeometry>
        </mxCell>
        <mxCell id="SNM1HYTEmkiPS5Zu2fkb-14" value="Food" style="whiteSpace=wrap;html=1;rounded=1;shadow=0;comic=0;strokeWidth=2;fontFamily=Verdana;align=center;fontSize=12;fontStyle=1" vertex="1" parent="1">
          <mxGeometry x="328" y="100" width="200" height="50" as="geometry" />
        </mxCell>
        <mxCell id="SNM1HYTEmkiPS5Zu2fkb-16" value="Candy" style="whiteSpace=wrap;html=1;rounded=1;shadow=0;comic=0;strokeWidth=2;fontFamily=Verdana;align=center;fontSize=12;fontStyle=1" vertex="1" parent="1">
          <mxGeometry x="440" y="315" width="117" height="50" as="geometry" />
        </mxCell>
        <mxCell id="SNM1HYTEmkiPS5Zu2fkb-17" value="Chocolate" style="whiteSpace=wrap;html=1;rounded=1;shadow=0;comic=0;strokeWidth=2;fontFamily=Verdana;align=center;fontSize=12;fontStyle=1" vertex="1" parent="1">
          <mxGeometry x="621.5" y="315" width="110" height="50" as="geometry" />
        </mxCell>
        <mxCell id="SNM1HYTEmkiPS5Zu2fkb-21" value="" style="edgeStyle=orthogonalEdgeStyle;rounded=1;html=1;labelBackgroundColor=none;endArrow=block;endFill=1;strokeColor=#4D4D4D;strokeWidth=2;fontFamily=Verdana;fontSize=12;fontStyle=1" edge="1" parent="1" source="SNM1HYTEmkiPS5Zu2fkb-24" target="SNM1HYTEmkiPS5Zu2fkb-26">
          <mxGeometry relative="1" as="geometry" />
        </mxCell>
        <mxCell id="SNM1HYTEmkiPS5Zu2fkb-22" value="" style="edgeStyle=orthogonalEdgeStyle;rounded=1;html=1;labelBackgroundColor=none;endArrow=block;endFill=1;strokeColor=#4D4D4D;strokeWidth=2;fontFamily=Verdana;fontSize=12;fontStyle=1" edge="1" parent="1" source="SNM1HYTEmkiPS5Zu2fkb-24" target="SNM1HYTEmkiPS5Zu2fkb-25">
          <mxGeometry relative="1" as="geometry" />
        </mxCell>
        <mxCell id="SNM1HYTEmkiPS5Zu2fkb-23" value="" style="edgeStyle=orthogonalEdgeStyle;rounded=0;orthogonalLoop=1;jettySize=auto;html=1;" edge="1" parent="1" source="SNM1HYTEmkiPS5Zu2fkb-24">
          <mxGeometry relative="1" as="geometry">
            <mxPoint x="20" y="520" as="targetPoint" />
          </mxGeometry>
        </mxCell>
        <mxCell id="SNM1HYTEmkiPS5Zu2fkb-24" value="Biscuits" style="whiteSpace=wrap;html=1;rounded=1;shadow=0;comic=0;strokeWidth=2;fontFamily=Verdana;align=center;fontSize=12;fontStyle=1" vertex="1" parent="1">
          <mxGeometry x="118" y="315" width="200" height="50" as="geometry" />
        </mxCell>
        <mxCell id="SNM1HYTEmkiPS5Zu2fkb-25" value="Butter" style="whiteSpace=wrap;html=1;rounded=1;shadow=0;comic=0;strokeWidth=2;fontFamily=Verdana;align=center;fontSize=12;fontStyle=1" vertex="1" parent="1">
          <mxGeometry x="159.5" y="530" width="117" height="50" as="geometry" />
        </mxCell>
        <mxCell id="SNM1HYTEmkiPS5Zu2fkb-26" value="Chesse" style="whiteSpace=wrap;html=1;rounded=1;shadow=0;comic=0;strokeWidth=2;fontFamily=Verdana;align=center;fontSize=12;fontStyle=1" vertex="1" parent="1">
          <mxGeometry x="341" y="530" width="110" height="50" as="geometry" />
        </mxCell>
        <mxCell id="SNM1HYTEmkiPS5Zu2fkb-28" value="" style="edgeStyle=orthogonalEdgeStyle;rounded=1;html=1;labelBackgroundColor=none;endArrow=block;endFill=1;strokeColor=#4D4D4D;strokeWidth=2;fontFamily=Verdana;fontSize=12;fontStyle=1" edge="1" parent="1" source="SNM1HYTEmkiPS5Zu2fkb-31" target="SNM1HYTEmkiPS5Zu2fkb-33">
          <mxGeometry relative="1" as="geometry" />
        </mxCell>
        <mxCell id="SNM1HYTEmkiPS5Zu2fkb-29" value="" style="edgeStyle=orthogonalEdgeStyle;rounded=1;html=1;labelBackgroundColor=none;endArrow=block;endFill=1;strokeColor=#4D4D4D;strokeWidth=2;fontFamily=Verdana;fontSize=12;fontStyle=1" edge="1" parent="1" source="SNM1HYTEmkiPS5Zu2fkb-31" target="SNM1HYTEmkiPS5Zu2fkb-32">
          <mxGeometry relative="1" as="geometry" />
        </mxCell>
        <mxCell id="SNM1HYTEmkiPS5Zu2fkb-30" value="" style="edgeStyle=orthogonalEdgeStyle;rounded=0;orthogonalLoop=1;jettySize=auto;html=1;" edge="1" parent="1" source="SNM1HYTEmkiPS5Zu2fkb-31" target="SNM1HYTEmkiPS5Zu2fkb-34">
          <mxGeometry relative="1" as="geometry" />
        </mxCell>
        <mxCell id="SNM1HYTEmkiPS5Zu2fkb-31" value="Cookie" style="whiteSpace=wrap;html=1;rounded=1;shadow=0;comic=0;strokeWidth=2;fontFamily=Verdana;align=center;fontSize=12;fontStyle=1" vertex="1" parent="1">
          <mxGeometry x="-132" y="520" width="200" height="50" as="geometry" />
        </mxCell>
        <mxCell id="SNM1HYTEmkiPS5Zu2fkb-32" value="Original" style="whiteSpace=wrap;html=1;rounded=1;shadow=0;comic=0;strokeWidth=2;fontFamily=Verdana;align=center;fontSize=12;fontStyle=1" vertex="1" parent="1">
          <mxGeometry x="-90.5" y="735" width="117" height="50" as="geometry" />
        </mxCell>
        <mxCell id="SNM1HYTEmkiPS5Zu2fkb-33" value="Wheatmeal" style="whiteSpace=wrap;html=1;rounded=1;shadow=0;comic=0;strokeWidth=2;fontFamily=Verdana;align=center;fontSize=12;fontStyle=1" vertex="1" parent="1">
          <mxGeometry x="91" y="735" width="110" height="50" as="geometry" />
        </mxCell>
        <mxCell id="SNM1HYTEmkiPS5Zu2fkb-34" value="Light" style="whiteSpace=wrap;html=1;fontFamily=Verdana;rounded=1;shadow=0;comic=0;strokeWidth=2;fontStyle=1;" vertex="1" parent="1">
          <mxGeometry x="-290" y="725" width="120" height="60" as="geometry" />
        </mxCell>
      </root>
    </mxGraphModel>
  </diagram>
</mxfile>
